Coordinates
version=1
nRows=4
nColumns=114
inDegrees=yes

Units are S.I. units (second, meters, Newtons, ...)
If the header above contains a line with 'inDegrees', this indicates whether rotational values are in degrees (yes) or radians (no).

endheader 
time	pelvis_tilt	pelvis_list	pelvis_rotation	pelvis_tx	pelvis_ty	pelvis_tz	hip_flexion_l	hip_adduction_l	hip_rotation_l	hip_flexion_r	hip_adduction_r	hip_rotation_r	knee_angle_l	knee_angle_r	ankle_angle_l	ankle_angle_r	subtalar_angle_l	subtalar_angle_r	mtp_angle_l	mtp_angle_r	lumbar_extension	lumbar_bending	lumbar_rotation	arm_flex_l	arm_add_l	arm_rot_l	arm_flex_r	arm_add_r	arm_rot_r	elbow_flex_l	elbow_flex_r	pro_sup_l	pro_sup_r	addbrev_l/activation	addlong_l/activation	addmagDist_l/activation	addmagIsch_l/activation	addmagMid_l/activation	addmagProx_l/activation	bflh_l/activation	bfsh_l/activation	edl_l/activation	ehl_l/activation	fdl_l/activation	fhl_l/activation	gaslat_l/activation	gasmed_l/activation	glmax1_l/activation	glmax2_l/activation	glmax3_l/activation	glmed1_l/activation	glmed2_l/activation	glmed3_l/activation	glmin1_l/activation	glmin2_l/activation	glmin3_l/activation	grac_l/activation	iliacus_l/activation	perbrev_l/activation	perlong_l/activation	piri_l/activation	psoas_l/activation	recfem_l/activation	sart_l/activation	semimem_l/activation	semiten_l/activation	soleus_l/activation	tfl_l/activation	tibant_l/activation	tibpost_l/activation	vasint_l/activation	vaslat_l/activation	vasmed_l/activation	addbrev_r/activation	addlong_r/activation	addmagDist_r/activation	addmagIsch_r/activation	addmagMid_r/activation	addmagProx_r/activation	bflh_r/activation	bfsh_r/activation	edl_r/activation	ehl_r/activation	fdl_r/activation	fhl_r/activation	gaslat_r/activation	gasmed_r/activation	glmax1_r/activation	glmax2_r/activation	glmax3_r/activation	glmed1_r/activation	glmed2_r/activation	glmed3_r/activation	glmin1_r/activation	glmin2_r/activation	glmin3_r/activation	grac_r/activation	iliacus_r/activation	perbrev_r/activation	perlong_r/activation	piri_r/activation	psoas_r/activation	recfem_r/activation	sart_r/activation	semimem_r/activation	semiten_r/activation	soleus_r/activation	tfl_r/activation	tibant_r/activation	tibpost_r/activation	vasint_r/activation	vaslat_r/activation	vasmed_r/activation	
          1.00000000	          8.22571432	         -3.46332174	          6.08827316	          0.43846561	          0.91159629	         -0.34107855	        -20.25683133	         -2.09031110	        -11.12137625	         -0.78685154	          2.64783315	         -6.91224548	          4.22485539	          0.78921370	          4.49188590	         -2.73081117	         -1.35263018	         -3.10117582	        -23.70522297	         -0.53359937	        -18.09327321	          3.70354381	         -4.62439927	          7.02686163	        -11.99907453	         29.11642643	         -0.59648566	         -5.82292938	         -0.26030860	         26.54442292	         21.95857588	         75.68631877	         78.50937122	          0.01747539	          0.03726907	          0.01299633	          0.01339769	          0.01378843	          0.01496007	          0.01165688	          0.06487273	          0.02095556	          0.04137140	          0.06383827	          0.08711661	          0.18375651	          0.27499371	          0.01193762	          0.01147754	          0.01104402	          0.11804769	          0.01776055	          0.01363834	          0.15180010	          0.04459793	          0.02907419	          0.02024806	          0.19314844	          0.01580792	          0.01378815	          0.02213358	          0.08748129	          0.12416606	          0.07596577	          0.01181596	          0.01368915	          0.13541162	          0.11239414	          0.07541709	          0.14453747	          0.01290490	          0.01099911	          0.01206986	          0.05483997	          0.05779399	          0.08195985	          0.10505254	          0.06327592	          0.03370199	          0.11891026	          0.04017414	          0.08942812	          0.06872697	          0.04001642	          0.02640551	          0.01250215	          0.01141442	          0.02095311	          0.04249166	          0.06709192	          0.09091650	          0.01824410	          0.01377071	          0.05809740	          0.02515034	          0.01709527	          0.04206633	          0.02551409	          0.02634613	          0.01949920	          0.01286998	          0.01838709	          0.01308407	          0.02407488	          0.22382470	          0.11384993	          0.01066814	          0.02087196	          0.22104033	          0.03245280	          0.03600303	          0.03137568	          0.03446637	
          1.01000000	          8.24402619	         -3.46887850	          6.19361210	          0.44245590	          0.91182958	         -0.33934482	        -20.28602546	         -2.35752135	        -11.17131207	         -1.04066841	          2.83430430	         -6.91528591	          4.68446142	          0.89732131	          4.40268058	         -2.59386143	         -1.31857209	         -3.24020903	        -23.99453544	         -0.63216915	        -17.92130242	          3.76635027	         -4.55299611	          6.86197722	        -12.02267703	         29.09801394	         -0.55670951	         -5.85456961	         -0.24059436	         26.48704786	         22.01980390	         75.70173283	         78.50468759	          0.01766817	          0.04614504	          0.01282999	          0.01341488	          0.01353244	          0.01365029	          0.01142314	          0.06259650	          0.02081873	          0.04077657	          0.06299184	          0.08597102	          0.17343467	          0.25818158	          0.01144074	          0.01119930	          0.01086643	          0.10480881	          0.01507011	          0.01176430	          0.15921910	          0.03738754	          0.02440246	          0.01811158	          0.22156156	          0.01598070	          0.01383120	          0.01892602	          0.08602217	          0.11761597	          0.07299387	          0.01167862	          0.01352065	          0.14883177	          0.09793126	          0.07085370	          0.14086943	          0.01285929	          0.01095321	          0.01203252	          0.05563567	          0.05934574	          0.08222434	          0.10579872	          0.06353064	          0.03364962	          0.11613563	          0.03960708	          0.08493599	          0.06676644	          0.04087122	          0.02840666	          0.01256465	          0.01144510	          0.02009084	          0.04088629	          0.06634096	          0.08831982	          0.01770593	          0.01369663	          0.05816289	          0.02455096	          0.01683223	          0.04184917	          0.02579419	          0.02498164	          0.01739153	          0.01284432	          0.01838533	          0.01311789	          0.02392707	          0.21848666	          0.11229984	          0.01069469	          0.02073893	          0.21212131	          0.03601909	          0.03726568	          0.03331471	          0.03594119	
          1.02000000	          8.26413613	         -3.48467656	          6.28869846	          0.44652039	          0.91215616	         -0.33755728	        -20.28816826	         -2.64857454	        -11.23764040	         -1.30455141	          3.03614900	         -6.92454832	          5.20559286	          0.98867544	          4.29064364	         -2.45745542	         -1.27463288	         -3.36969850	        -24.30371795	         -0.73845891	        -17.73370453	          3.83704483	         -4.46838102	          6.68263572	        -12.04382915	         29.06949222	         -0.52106679	         -5.88860227	         -0.21315499	         26.42047462	         22.08596641	         75.71596887	         78.50181129	          0.01857916	          0.05902536	          0.01269276	          0.01344670	          0.01333637	          0.01274647	          0.01125484	          0.06011422	          0.02083540	          0.04012906	          0.06200388	          0.08458074	          0.16099322	          0.23853703	          0.01115848	          0.01100598	          0.01073647	          0.09274879	          0.01291729	          0.01078836	          0.16455983	          0.03136945	          0.02051527	          0.01645091	          0.24611150	          0.01626314	          0.01393076	          0.01634447	          0.08612796	          0.11227812	          0.07001132	          0.01159687	          0.01337007	          0.16303061	          0.08455147	          0.06555864	          0.13642392	          0.01276373	          0.01089761	          0.01194102	          0.05697904	          0.06257087	          0.08259399	          0.10536178	          0.06407526	          0.03387505	          0.11313015	          0.03908659	          0.08184258	          0.06534669	          0.04146997	          0.02995233	          0.01263651	          0.01148344	          0.01939706	          0.03930670	          0.06584635	          0.08179228	          0.01728764	          0.01358713	          0.05749669	          0.02401200	          0.01661102	          0.04180103	          0.02616357	          0.02432784	          0.01617236	          0.01278411	          0.01841991	          0.01312956	          0.02386239	          0.21205665	          0.11172454	          0.01071650	          0.02070761	          0.20566318	          0.03873111	          0.03878470	          0.03582907	          0.03776579	
          1.03000000	          8.28115569	         -3.50738678	          6.37292624	          0.45064693	          0.91256018	         -0.33571806	        -20.25836783	         -2.95850434	        -11.31642589	         -1.57574621	          3.24988387	         -6.94041054	          5.78599456	          1.05795332	          4.15644840	         -2.32306862	         -1.22447244	         -3.48899703	        -24.62803128	         -0.84942943	        -17.52847708	          3.91216262	         -4.37125023	          6.48926432	        -12.06242667	         29.02861875	         -0.49008772	         -5.92481967	         -0.17640028	         26.34535469	         22.15872199	         75.72865750	         78.50122508	          0.02089882	          0.07756444	          0.01262981	          0.01354852	          0.01322081	          0.01225430	          0.01113300	          0.05668268	          0.02079580	          0.03933884	          0.06062710	          0.08252915	          0.14567898	          0.21596592	          0.01099561	          0.01088178	          0.01064922	          0.08262107	          0.01140034	          0.01063160	          0.16822511	          0.02635765	          0.01730005	          0.01523233	          0.26483378	          0.01663978	          0.01407421	          0.01440315	          0.08511457	          0.10239174	          0.06608516	          0.01151588	          0.01322712	          0.17835175	          0.07228440	          0.05936218	          0.13058450	          0.01285362	          0.01090741	          0.01201513	          0.05883511	          0.06680279	          0.08300895	          0.10567940	          0.06473671	          0.03422708	          0.10938247	          0.03848282	          0.08033687	          0.06457686	          0.04174305	          0.03083004	          0.01270329	          0.01151613	          0.01877682	          0.03752222	          0.06495178	          0.06963253	          0.01695198	          0.01335781	          0.05634386	          0.02355191	          0.01641728	          0.04184389	          0.02666385	          0.02401754	          0.01556934	          0.01253747	          0.01851626	          0.01315733	          0.02389479	          0.20199323	          0.10951382	          0.01073401	          0.02069244	          0.20201957	          0.04007318	          0.04045505	          0.03889004	          0.03984805	
